<?xml version="1.0" encoding="UTF-8" standalone="no"?>
<svg
   version="1.1"
   font-family="sans-serif, droid-sans, helvetica, verdana, tahoma"
   viewbox="0 0 600 383"
   width="600"
   height="383"
   preserveAspectRatio="xMinYMin meet"
   id="svg128"
   sodipodi:docname="ddracenetwork-3840-x-2160-fullscreen-vulkan-default-rainymore2.svgz"
   xmlns:inkscape="http://www.inkscape.org/namespaces/inkscape"
   xmlns:sodipodi="http://sodipodi.sourceforge.net/DTD/sodipodi-0.dtd"
   xmlns:xlink="http://www.w3.org/1999/xlink"
   xmlns="http://www.w3.org/2000/svg"
   xmlns:svg="http://www.w3.org/2000/svg">
  <defs
     id="defs132" />
  <sodipodi:namedview
     id="namedview130"
     pagecolor="#ffffff"
     bordercolor="#000000"
     borderopacity="0.25"
     inkscape:showpageshadow="2"
     inkscape:pageopacity="0.0"
     inkscape:pagecheckerboard="0"
     inkscape:deskcolor="#d1d1d1" />
  <g
     stroke="#757575"
     stroke-width="1"
     id="g6">
    <rect
       x="126"
       y="52"
       width="10"
       height="10"
       fill="#f44336"
       id="rect2" />
    <rect
       x="242"
       y="52"
       width="10"
       height="10"
       fill="#673ab7"
       id="rect4" />
  </g>
  <g
     font-size="9"
     text-anchor="start"
     font-weight="bold"
     id="g12">
    <text
       x="139"
       y="61"
       fill="#f44336"
       id="text8">Wayland Session</text>
    <text
       x="255"
       y="61"
       fill="#673ab7"
       id="text10">X.Org Session</text>
  </g>
  <g
     stroke="#757575"
     stroke-width="1"
     id="g18">
    <line
       x1="126"
       y1="80"
       x2="126"
       y2="303"
       id="line14" />
    <line
       x1="126"
       y1="302"
       x2="586"
       y2="302"
       id="line16" />
  </g>
  <a
     xlink:href="https://openbenchmarking.org/result/2301279-NE-UBUNTU22169&amp;sgm=1&amp;"
     target="_blank"
     id="a22">
    <text
       x="585"
       y="75"
       font-size="8"
       fill="#065695"
       text-anchor="end"
       font-weight="bold"
       id="text20">Phoronix.com</text>
  </a>
  <polygon
     points="135,72 126,77 126,67"
     fill="#065695"
     stroke="#949494"
     stroke-width="1"
     id="polygon24" />
  <text
     x="138"
     y="75"
     font-size="8"
     font-weight="bold"
     fill="#065695"
     text-anchor="start"
     id="text26">Frames Per Second, More Is Better</text>
  <a
     xlink:href="https://openbenchmarking.org/test/pts/ddnet"
     target="_blank"
     id="a30">
    <text
       x="6"
       y="19"
       font-size="17"
       fill="#231f20"
       text-anchor="start"
       font-weight="bold"
       id="text28">DDraceNetwork 16.3.2</text>
  </a>
  <text
     x="6"
     y="36"
     font-size="9"
     font-weight="bold"
     fill="#231f20"
     text-anchor="start"
     id="text32">Resolution: 3840 x 2160 - Mode: Fullscreen - Renderer: Vulkan - Zoom: Default - Demo: RaiNyMore2</text>
  <path
     d="m74 22v9m-5-16v16m-5-28v28m-23-2h12.5c2.485281 0 4.5-2.014719 4.5-4.5s-2.014719-4.5-4.5-4.5h-8c-2.485281 0-4.5-2.014719-4.5-4.5s2.014719-4.5 4.5-4.5h12.5m-21 5h-11m11 13h-2c-4.970563 0-9-4.029437-9-9v-20m-24 40v-20c0-4.970563 4.0294373-9 9-9 4.970563 0 9 4.029437 9 9s-4.029437 9-9 9h-9"
     stroke="#231f20"
     stroke-width="4"
     fill="none"
     transform="translate(508,4)"
     id="path34" />
  <line
     x1="126"
     y1="191"
     x2="126"
     y2="252"
     stroke="#757575"
     stroke-width="11"
     stroke-dasharray="1,110"
     id="line36" />
  <g
     font-size="10"
     fill="#231f20"
     text-anchor="end"
     id="g42">
    <text
       x="8"
       y="139"
       text-anchor="middle"
       font-weight="bold"
       transform="rotate(90 8 139)"
       id="text38">RX 7900 XTX</text>
    <text
       x="8"
       y="250"
       text-anchor="middle"
       font-weight="bold"
       transform="rotate(90 8 250)"
       id="text40">RTX 3090</text>
  </g>
  <g
     font-size="10"
     fill="#065695"
     text-anchor="middle"
     id="g54">
    <text
       x="205"
       y="317"
       id="text44">2K</text>
    <text
       x="282"
       y="317"
       id="text46">4K</text>
    <text
       x="359"
       y="317"
       id="text48">6K</text>
    <text
       x="436"
       y="317"
       id="text50">8K</text>
    <text
       x="513"
       y="317"
       id="text52">10K</text>
  </g>
  <g
     stroke="#BABABA"
     stroke-width="1"
     id="g76">
    <line
       x1="205"
       y1="80"
       x2="205"
       y2="297"
       stroke-dasharray="5,5"
       id="line56" />
    <line
       x1="205"
       y1="298"
       x2="205"
       y2="307"
       id="line58" />
    <line
       x1="282"
       y1="80"
       x2="282"
       y2="297"
       stroke-dasharray="5,5"
       id="line60" />
    <line
       x1="282"
       y1="298"
       x2="282"
       y2="307"
       id="line62" />
    <line
       x1="359"
       y1="80"
       x2="359"
       y2="297"
       stroke-dasharray="5,5"
       id="line64" />
    <line
       x1="359"
       y1="298"
       x2="359"
       y2="307"
       id="line66" />
    <line
       x1="436"
       y1="80"
       x2="436"
       y2="297"
       stroke-dasharray="5,5"
       id="line68" />
    <line
       x1="436"
       y1="298"
       x2="436"
       y2="307"
       id="line70" />
    <line
       x1="513"
       y1="80"
       x2="513"
       y2="297"
       stroke-dasharray="5,5"
       id="line72" />
    <line
       x1="513"
       y1="298"
       x2="513"
       y2="307"
       id="line74" />
  </g>
  <g
     stroke="#949494"
     stroke-width="1"
     id="g86">
    <rect
       x="126"
       y="89"
       height="47"
       width="313"
       fill="#f44336"
       id="rect78" />
    <rect
       x="126"
       y="200"
       height="47"
       width="28"
       fill="#f44336"
       id="rect80" />
    <rect
       x="126"
       y="140"
       height="47"
       width="298"
       fill="#673ab7"
       id="rect82" />
    <rect
       x="126"
       y="251"
       height="47"
       width="49"
       fill="#673ab7"
       id="rect84" />
  </g>
  <g
     font-size="8"
     fill="#065695"
     text-anchor="end"
     id="g96">
    <text
       y="119"
       x="121"
       id="text88">SE +/- 180.29, N = 12</text>
    <text
       y="230"
       x="121"
       id="text90">SE +/- 0.36, N = 3</text>
    <text
       y="170"
       x="121"
       id="text92">SE +/- 146.69, N = 15</text>
    <text
       y="281"
       x="121"
       id="text94">SE +/- 0.81, N = 3</text>
  </g>
  <g
     font-size="10"
     fill="#FFFFFF"
     font-weight="bold"
     text-anchor="end"
     id="g106">
    <text
       x="434"
       y="119"
       id="text98">8193.66</text>
    <text
       x="160"
       y="230"
       fill="#065695"
       text-anchor="start"
       id="text100">727.30</text>
    <text
       x="419"
       y="170"
       id="text102">7798.86</text>
    <text
       x="170"
       y="281"
       id="text104">1270.29</text>
  </g>
  <g
     stroke="#757575"
     stroke-width="1"
     id="g114">
    <line
       x1="432"
       y1="89"
       x2="432"
       y2="97"
       id="line108" />
    <line
       x1="446"
       y1="89"
       x2="446"
       y2="97"
       id="line110" />
    <line
       x1="432"
       y1="89"
       x2="446"
       y2="89"
       id="line112" />
  </g>
  <g
     stroke="#757575"
     stroke-width="1"
     id="g122">
    <line
       x1="418"
       y1="140"
       x2="418"
       y2="148"
       id="line116" />
    <line
       x1="430"
       y1="140"
       x2="430"
       y2="148"
       id="line118" />
    <line
       x1="418"
       y1="140"
       x2="430"
       y2="140"
       id="line120" />
  </g>
  <text
     x="5"
     y="342"
     font-size="8"
     fill="#231f20"
     text-anchor="start"
     id="text126"><tspan
       x="5"
       y="342"
       dx="0"
       dy="0"
       id="tspan124">1. (CXX) g++ options: -O3 -lrt -ldl -lvulkan -lnotify -lgdk_pixbuf-2.0 -lgio-2.0 -lgobject-2.0 -lglib-2.0 -fuse-ld=gold </tspan></text>
</svg>
